<mxfile host="app.diagrams.net" modified="2025-02-26T13:59:04.849Z" agent="Mozilla/5.0 (Macintosh; Intel Mac OS X 10_15_7) AppleWebKit/537.36 (KHTML, like Gecko) Chrome/128.0.0.0 Safari/537.36" etag="U97U8vulS6ODb2XO94fx" version="24.6.4" type="device">
  <diagram name="Page-1" id="wZxz7oJEHbRwjCW1CsfJ">
    <mxGraphModel dx="1230" dy="1804" grid="1" gridSize="10" guides="1" tooltips="1" connect="1" arrows="1" fold="1" page="1" pageScale="1" pageWidth="850" pageHeight="1100" math="0" shadow="0">
      <root>
        <mxCell id="0" />
        <mxCell id="1" parent="0" />
        <mxCell id="gP4_GxT2YqUNMGMv6Jxc-4" value="Home" style="swimlane;fontStyle=0;childLayout=stackLayout;horizontal=1;startSize=26;horizontalStack=0;resizeParent=1;resizeParentMax=0;resizeLast=0;collapsible=1;marginBottom=0;align=center;fontSize=14;" vertex="1" parent="1">
          <mxGeometry x="80" y="50" width="160" height="56" as="geometry" />
        </mxCell>
        <mxCell id="gP4_GxT2YqUNMGMv6Jxc-6" value="&amp;nbsp;" style="text;strokeColor=none;fillColor=none;spacingLeft=4;spacingRight=4;overflow=hidden;rotatable=0;points=[[0,0.5],[1,0.5]];portConstraint=eastwest;fontSize=12;whiteSpace=wrap;html=1;" vertex="1" parent="gP4_GxT2YqUNMGMv6Jxc-4">
          <mxGeometry y="26" width="160" height="30" as="geometry" />
        </mxCell>
        <mxCell id="gP4_GxT2YqUNMGMv6Jxc-9" value="TemplateThumbnail" style="swimlane;fontStyle=0;childLayout=stackLayout;horizontal=1;startSize=30;horizontalStack=0;resizeParent=1;resizeParentMax=0;resizeLast=0;collapsible=1;marginBottom=0;whiteSpace=wrap;html=1;" vertex="1" parent="1">
          <mxGeometry x="430" y="-30" width="140" height="90" as="geometry" />
        </mxCell>
        <mxCell id="gP4_GxT2YqUNMGMv6Jxc-10" value="&lt;b&gt;props:&lt;/b&gt;" style="text;strokeColor=none;fillColor=none;align=left;verticalAlign=middle;spacingLeft=4;spacingRight=4;overflow=hidden;points=[[0,0.5],[1,0.5]];portConstraint=eastwest;rotatable=0;whiteSpace=wrap;html=1;" vertex="1" parent="gP4_GxT2YqUNMGMv6Jxc-9">
          <mxGeometry y="30" width="140" height="30" as="geometry" />
        </mxCell>
        <mxCell id="gP4_GxT2YqUNMGMv6Jxc-11" value="template: object" style="text;strokeColor=none;fillColor=none;align=left;verticalAlign=middle;spacingLeft=4;spacingRight=4;overflow=hidden;points=[[0,0.5],[1,0.5]];portConstraint=eastwest;rotatable=0;whiteSpace=wrap;html=1;" vertex="1" parent="gP4_GxT2YqUNMGMv6Jxc-9">
          <mxGeometry y="60" width="140" height="30" as="geometry" />
        </mxCell>
        <mxCell id="gP4_GxT2YqUNMGMv6Jxc-50" value="" style="edgeStyle=orthogonalEdgeStyle;rounded=0;orthogonalLoop=1;jettySize=auto;html=1;" edge="1" parent="1" source="gP4_GxT2YqUNMGMv6Jxc-14" target="gP4_GxT2YqUNMGMv6Jxc-47">
          <mxGeometry relative="1" as="geometry" />
        </mxCell>
        <mxCell id="gP4_GxT2YqUNMGMv6Jxc-14" value="Header" style="swimlane;fontStyle=0;childLayout=stackLayout;horizontal=1;startSize=30;horizontalStack=0;resizeParent=1;resizeParentMax=0;resizeLast=0;collapsible=1;marginBottom=0;whiteSpace=wrap;html=1;" vertex="1" parent="1">
          <mxGeometry x="430" y="106" width="160" height="90" as="geometry" />
        </mxCell>
        <mxCell id="gP4_GxT2YqUNMGMv6Jxc-15" value="&lt;b&gt;props:&lt;/b&gt;" style="text;strokeColor=none;fillColor=none;align=left;verticalAlign=middle;spacingLeft=4;spacingRight=4;overflow=hidden;points=[[0,0.5],[1,0.5]];portConstraint=eastwest;rotatable=0;whiteSpace=wrap;html=1;" vertex="1" parent="gP4_GxT2YqUNMGMv6Jxc-14">
          <mxGeometry y="30" width="160" height="30" as="geometry" />
        </mxCell>
        <mxCell id="gP4_GxT2YqUNMGMv6Jxc-16" value="onExport?: function" style="text;strokeColor=none;fillColor=none;align=left;verticalAlign=middle;spacingLeft=4;spacingRight=4;overflow=hidden;points=[[0,0.5],[1,0.5]];portConstraint=eastwest;rotatable=0;whiteSpace=wrap;html=1;" vertex="1" parent="gP4_GxT2YqUNMGMv6Jxc-14">
          <mxGeometry y="60" width="160" height="30" as="geometry" />
        </mxCell>
        <mxCell id="gP4_GxT2YqUNMGMv6Jxc-17" value="" style="endArrow=none;html=1;rounded=0;exitX=0.994;exitY=0.3;exitDx=0;exitDy=0;exitPerimeter=0;" edge="1" parent="1" source="gP4_GxT2YqUNMGMv6Jxc-6">
          <mxGeometry width="50" height="50" relative="1" as="geometry">
            <mxPoint x="400" y="170" as="sourcePoint" />
            <mxPoint x="320" y="85" as="targetPoint" />
          </mxGeometry>
        </mxCell>
        <mxCell id="gP4_GxT2YqUNMGMv6Jxc-18" value="" style="endArrow=none;html=1;rounded=0;" edge="1" parent="1">
          <mxGeometry width="50" height="50" relative="1" as="geometry">
            <mxPoint x="320" y="150" as="sourcePoint" />
            <mxPoint x="320" y="10" as="targetPoint" />
          </mxGeometry>
        </mxCell>
        <mxCell id="gP4_GxT2YqUNMGMv6Jxc-19" value="" style="endArrow=classic;html=1;rounded=0;entryX=0;entryY=0.267;entryDx=0;entryDy=0;entryPerimeter=0;" edge="1" parent="1" target="gP4_GxT2YqUNMGMv6Jxc-10">
          <mxGeometry width="50" height="50" relative="1" as="geometry">
            <mxPoint x="320" y="10" as="sourcePoint" />
            <mxPoint x="410" y="10" as="targetPoint" />
          </mxGeometry>
        </mxCell>
        <mxCell id="gP4_GxT2YqUNMGMv6Jxc-20" value="" style="endArrow=classic;html=1;rounded=0;entryX=0;entryY=0.5;entryDx=0;entryDy=0;" edge="1" parent="1" target="gP4_GxT2YqUNMGMv6Jxc-15">
          <mxGeometry width="50" height="50" relative="1" as="geometry">
            <mxPoint x="320" y="150" as="sourcePoint" />
            <mxPoint x="450" y="120" as="targetPoint" />
          </mxGeometry>
        </mxCell>
        <mxCell id="gP4_GxT2YqUNMGMv6Jxc-27" style="edgeStyle=orthogonalEdgeStyle;rounded=0;orthogonalLoop=1;jettySize=auto;html=1;entryX=0;entryY=0.5;entryDx=0;entryDy=0;" edge="1" parent="1" source="gP4_GxT2YqUNMGMv6Jxc-24" target="gP4_GxT2YqUNMGMv6Jxc-15">
          <mxGeometry relative="1" as="geometry" />
        </mxCell>
        <mxCell id="gP4_GxT2YqUNMGMv6Jxc-24" value="TemplateSettings" style="swimlane;fontStyle=0;childLayout=stackLayout;horizontal=1;startSize=30;horizontalStack=0;resizeParent=1;resizeParentMax=0;resizeLast=0;collapsible=1;marginBottom=0;whiteSpace=wrap;html=1;" vertex="1" parent="1">
          <mxGeometry x="80" y="350" width="160" height="90" as="geometry" />
        </mxCell>
        <mxCell id="gP4_GxT2YqUNMGMv6Jxc-25" value="&lt;b&gt;props:&lt;/b&gt;" style="text;strokeColor=none;fillColor=none;align=left;verticalAlign=middle;spacingLeft=4;spacingRight=4;overflow=hidden;points=[[0,0.5],[1,0.5]];portConstraint=eastwest;rotatable=0;whiteSpace=wrap;html=1;" vertex="1" parent="gP4_GxT2YqUNMGMv6Jxc-24">
          <mxGeometry y="30" width="160" height="30" as="geometry" />
        </mxCell>
        <mxCell id="gP4_GxT2YqUNMGMv6Jxc-26" value="id: string" style="text;strokeColor=none;fillColor=none;align=left;verticalAlign=middle;spacingLeft=4;spacingRight=4;overflow=hidden;points=[[0,0.5],[1,0.5]];portConstraint=eastwest;rotatable=0;whiteSpace=wrap;html=1;" vertex="1" parent="gP4_GxT2YqUNMGMv6Jxc-24">
          <mxGeometry y="60" width="160" height="30" as="geometry" />
        </mxCell>
        <mxCell id="gP4_GxT2YqUNMGMv6Jxc-28" value="TemplateContent" style="swimlane;fontStyle=0;childLayout=stackLayout;horizontal=1;startSize=30;horizontalStack=0;resizeParent=1;resizeParentMax=0;resizeLast=0;collapsible=1;marginBottom=0;whiteSpace=wrap;html=1;" vertex="1" parent="1">
          <mxGeometry x="425" y="250" width="160" height="150" as="geometry" />
        </mxCell>
        <mxCell id="gP4_GxT2YqUNMGMv6Jxc-29" value="&lt;b&gt;props:&lt;/b&gt;" style="text;strokeColor=none;fillColor=none;align=left;verticalAlign=middle;spacingLeft=4;spacingRight=4;overflow=hidden;points=[[0,0.5],[1,0.5]];portConstraint=eastwest;rotatable=0;whiteSpace=wrap;html=1;" vertex="1" parent="gP4_GxT2YqUNMGMv6Jxc-28">
          <mxGeometry y="30" width="160" height="30" as="geometry" />
        </mxCell>
        <mxCell id="gP4_GxT2YqUNMGMv6Jxc-30" value="containerRef" style="text;strokeColor=none;fillColor=none;align=left;verticalAlign=middle;spacingLeft=4;spacingRight=4;overflow=hidden;points=[[0,0.5],[1,0.5]];portConstraint=eastwest;rotatable=0;whiteSpace=wrap;html=1;" vertex="1" parent="gP4_GxT2YqUNMGMv6Jxc-28">
          <mxGeometry y="60" width="160" height="30" as="geometry" />
        </mxCell>
        <mxCell id="gP4_GxT2YqUNMGMv6Jxc-31" value="activeElement" style="text;strokeColor=none;fillColor=none;align=left;verticalAlign=middle;spacingLeft=4;spacingRight=4;overflow=hidden;points=[[0,0.5],[1,0.5]];portConstraint=eastwest;rotatable=0;whiteSpace=wrap;html=1;" vertex="1" parent="gP4_GxT2YqUNMGMv6Jxc-28">
          <mxGeometry y="90" width="160" height="30" as="geometry" />
        </mxCell>
        <mxCell id="gP4_GxT2YqUNMGMv6Jxc-32" value="setActiveElement" style="text;strokeColor=none;fillColor=none;align=left;verticalAlign=middle;spacingLeft=4;spacingRight=4;overflow=hidden;points=[[0,0.5],[1,0.5]];portConstraint=eastwest;rotatable=0;whiteSpace=wrap;html=1;" vertex="1" parent="gP4_GxT2YqUNMGMv6Jxc-28">
          <mxGeometry y="120" width="160" height="30" as="geometry" />
        </mxCell>
        <mxCell id="gP4_GxT2YqUNMGMv6Jxc-33" style="edgeStyle=orthogonalEdgeStyle;rounded=0;orthogonalLoop=1;jettySize=auto;html=1;entryX=-0.031;entryY=0.14;entryDx=0;entryDy=0;entryPerimeter=0;" edge="1" parent="1" source="gP4_GxT2YqUNMGMv6Jxc-24" target="gP4_GxT2YqUNMGMv6Jxc-28">
          <mxGeometry relative="1" as="geometry" />
        </mxCell>
        <mxCell id="gP4_GxT2YqUNMGMv6Jxc-45" style="edgeStyle=orthogonalEdgeStyle;rounded=0;orthogonalLoop=1;jettySize=auto;html=1;entryX=0;entryY=0.25;entryDx=0;entryDy=0;" edge="1" parent="1" source="gP4_GxT2YqUNMGMv6Jxc-34" target="gP4_GxT2YqUNMGMv6Jxc-40">
          <mxGeometry relative="1" as="geometry" />
        </mxCell>
        <mxCell id="gP4_GxT2YqUNMGMv6Jxc-34" value="Settings" style="swimlane;fontStyle=0;childLayout=stackLayout;horizontal=1;startSize=30;horizontalStack=0;resizeParent=1;resizeParentMax=0;resizeLast=0;collapsible=1;marginBottom=0;whiteSpace=wrap;html=1;" vertex="1" parent="1">
          <mxGeometry x="425" y="450" width="160" height="150" as="geometry" />
        </mxCell>
        <mxCell id="gP4_GxT2YqUNMGMv6Jxc-35" value="&lt;b&gt;props:&lt;/b&gt;" style="text;strokeColor=none;fillColor=none;align=left;verticalAlign=middle;spacingLeft=4;spacingRight=4;overflow=hidden;points=[[0,0.5],[1,0.5]];portConstraint=eastwest;rotatable=0;whiteSpace=wrap;html=1;" vertex="1" parent="gP4_GxT2YqUNMGMv6Jxc-34">
          <mxGeometry y="30" width="160" height="30" as="geometry" />
        </mxCell>
        <mxCell id="gP4_GxT2YqUNMGMv6Jxc-36" value="activeElement" style="text;strokeColor=none;fillColor=none;align=left;verticalAlign=middle;spacingLeft=4;spacingRight=4;overflow=hidden;points=[[0,0.5],[1,0.5]];portConstraint=eastwest;rotatable=0;whiteSpace=wrap;html=1;" vertex="1" parent="gP4_GxT2YqUNMGMv6Jxc-34">
          <mxGeometry y="60" width="160" height="30" as="geometry" />
        </mxCell>
        <mxCell id="gP4_GxT2YqUNMGMv6Jxc-37" value="params" style="text;strokeColor=none;fillColor=none;align=left;verticalAlign=middle;spacingLeft=4;spacingRight=4;overflow=hidden;points=[[0,0.5],[1,0.5]];portConstraint=eastwest;rotatable=0;whiteSpace=wrap;html=1;" vertex="1" parent="gP4_GxT2YqUNMGMv6Jxc-34">
          <mxGeometry y="90" width="160" height="30" as="geometry" />
        </mxCell>
        <mxCell id="gP4_GxT2YqUNMGMv6Jxc-38" value="setTemplateParams" style="text;strokeColor=none;fillColor=none;align=left;verticalAlign=middle;spacingLeft=4;spacingRight=4;overflow=hidden;points=[[0,0.5],[1,0.5]];portConstraint=eastwest;rotatable=0;whiteSpace=wrap;html=1;" vertex="1" parent="gP4_GxT2YqUNMGMv6Jxc-34">
          <mxGeometry y="120" width="160" height="30" as="geometry" />
        </mxCell>
        <mxCell id="gP4_GxT2YqUNMGMv6Jxc-39" style="edgeStyle=orthogonalEdgeStyle;rounded=0;orthogonalLoop=1;jettySize=auto;html=1;entryX=0.006;entryY=0.113;entryDx=0;entryDy=0;entryPerimeter=0;" edge="1" parent="1" source="gP4_GxT2YqUNMGMv6Jxc-26" target="gP4_GxT2YqUNMGMv6Jxc-34">
          <mxGeometry relative="1" as="geometry" />
        </mxCell>
        <mxCell id="gP4_GxT2YqUNMGMv6Jxc-40" value="UISettingComponents" style="swimlane;fontStyle=0;childLayout=stackLayout;horizontal=1;startSize=30;horizontalStack=0;resizeParent=1;resizeParentMax=0;resizeLast=0;collapsible=1;marginBottom=0;whiteSpace=wrap;html=1;" vertex="1" parent="1">
          <mxGeometry x="660" y="450" width="160" height="240" as="geometry" />
        </mxCell>
        <mxCell id="gP4_GxT2YqUNMGMv6Jxc-53" value="&lt;b&gt;component collection:&lt;/b&gt;" style="text;strokeColor=none;fillColor=none;align=left;verticalAlign=middle;spacingLeft=4;spacingRight=4;overflow=hidden;points=[[0,0.5],[1,0.5]];portConstraint=eastwest;rotatable=0;whiteSpace=wrap;html=1;" vertex="1" parent="gP4_GxT2YqUNMGMv6Jxc-40">
          <mxGeometry y="30" width="160" height="30" as="geometry" />
        </mxCell>
        <mxCell id="gP4_GxT2YqUNMGMv6Jxc-54" value="BackgroundColor" style="text;strokeColor=none;fillColor=none;align=left;verticalAlign=middle;spacingLeft=4;spacingRight=4;overflow=hidden;points=[[0,0.5],[1,0.5]];portConstraint=eastwest;rotatable=0;whiteSpace=wrap;html=1;" vertex="1" parent="gP4_GxT2YqUNMGMv6Jxc-40">
          <mxGeometry y="60" width="160" height="30" as="geometry" />
        </mxCell>
        <mxCell id="gP4_GxT2YqUNMGMv6Jxc-57" value="Color" style="text;strokeColor=none;fillColor=none;align=left;verticalAlign=middle;spacingLeft=4;spacingRight=4;overflow=hidden;points=[[0,0.5],[1,0.5]];portConstraint=eastwest;rotatable=0;whiteSpace=wrap;html=1;" vertex="1" parent="gP4_GxT2YqUNMGMv6Jxc-40">
          <mxGeometry y="90" width="160" height="30" as="geometry" />
        </mxCell>
        <mxCell id="gP4_GxT2YqUNMGMv6Jxc-56" value="Content" style="text;strokeColor=none;fillColor=none;align=left;verticalAlign=middle;spacingLeft=4;spacingRight=4;overflow=hidden;points=[[0,0.5],[1,0.5]];portConstraint=eastwest;rotatable=0;whiteSpace=wrap;html=1;" vertex="1" parent="gP4_GxT2YqUNMGMv6Jxc-40">
          <mxGeometry y="120" width="160" height="30" as="geometry" />
        </mxCell>
        <mxCell id="gP4_GxT2YqUNMGMv6Jxc-58" value="FontSize" style="text;strokeColor=none;fillColor=none;align=left;verticalAlign=middle;spacingLeft=4;spacingRight=4;overflow=hidden;points=[[0,0.5],[1,0.5]];portConstraint=eastwest;rotatable=0;whiteSpace=wrap;html=1;" vertex="1" parent="gP4_GxT2YqUNMGMv6Jxc-40">
          <mxGeometry y="150" width="160" height="30" as="geometry" />
        </mxCell>
        <mxCell id="gP4_GxT2YqUNMGMv6Jxc-55" value="FontWeight" style="text;strokeColor=none;fillColor=none;align=left;verticalAlign=middle;spacingLeft=4;spacingRight=4;overflow=hidden;points=[[0,0.5],[1,0.5]];portConstraint=eastwest;rotatable=0;whiteSpace=wrap;html=1;" vertex="1" parent="gP4_GxT2YqUNMGMv6Jxc-40">
          <mxGeometry y="180" width="160" height="30" as="geometry" />
        </mxCell>
        <mxCell id="gP4_GxT2YqUNMGMv6Jxc-59" value="ImageSource" style="text;strokeColor=none;fillColor=none;align=left;verticalAlign=middle;spacingLeft=4;spacingRight=4;overflow=hidden;points=[[0,0.5],[1,0.5]];portConstraint=eastwest;rotatable=0;whiteSpace=wrap;html=1;" vertex="1" parent="gP4_GxT2YqUNMGMv6Jxc-40">
          <mxGeometry y="210" width="160" height="30" as="geometry" />
        </mxCell>
        <mxCell id="gP4_GxT2YqUNMGMv6Jxc-47" value="BasicButton" style="swimlane;fontStyle=0;childLayout=stackLayout;horizontal=1;startSize=30;horizontalStack=0;resizeParent=1;resizeParentMax=0;resizeLast=0;collapsible=1;marginBottom=0;whiteSpace=wrap;html=1;" vertex="1" parent="1">
          <mxGeometry x="670" y="106" width="160" height="90" as="geometry" />
        </mxCell>
        <mxCell id="gP4_GxT2YqUNMGMv6Jxc-48" value="&lt;b&gt;props:&lt;/b&gt;" style="text;strokeColor=none;fillColor=none;align=left;verticalAlign=middle;spacingLeft=4;spacingRight=4;overflow=hidden;points=[[0,0.5],[1,0.5]];portConstraint=eastwest;rotatable=0;whiteSpace=wrap;html=1;" vertex="1" parent="gP4_GxT2YqUNMGMv6Jxc-47">
          <mxGeometry y="30" width="160" height="30" as="geometry" />
        </mxCell>
        <mxCell id="gP4_GxT2YqUNMGMv6Jxc-49" value="onClick: function" style="text;strokeColor=none;fillColor=none;align=left;verticalAlign=middle;spacingLeft=4;spacingRight=4;overflow=hidden;points=[[0,0.5],[1,0.5]];portConstraint=eastwest;rotatable=0;whiteSpace=wrap;html=1;" vertex="1" parent="gP4_GxT2YqUNMGMv6Jxc-47">
          <mxGeometry y="60" width="160" height="30" as="geometry" />
        </mxCell>
        <mxCell id="gP4_GxT2YqUNMGMv6Jxc-63" value="" style="edgeStyle=orthogonalEdgeStyle;rounded=0;orthogonalLoop=1;jettySize=auto;html=1;" edge="1" parent="1" source="gP4_GxT2YqUNMGMv6Jxc-61" target="gP4_GxT2YqUNMGMv6Jxc-62">
          <mxGeometry relative="1" as="geometry" />
        </mxCell>
        <mxCell id="gP4_GxT2YqUNMGMv6Jxc-61" value="Start" style="ellipse;whiteSpace=wrap;html=1;" vertex="1" parent="1">
          <mxGeometry x="1340" y="-90" width="120" height="80" as="geometry" />
        </mxCell>
        <mxCell id="gP4_GxT2YqUNMGMv6Jxc-77" value="" style="edgeStyle=orthogonalEdgeStyle;rounded=0;orthogonalLoop=1;jettySize=auto;html=1;" edge="1" parent="1" source="gP4_GxT2YqUNMGMv6Jxc-62" target="gP4_GxT2YqUNMGMv6Jxc-76">
          <mxGeometry relative="1" as="geometry" />
        </mxCell>
        <mxCell id="gP4_GxT2YqUNMGMv6Jxc-62" value="Home" style="whiteSpace=wrap;html=1;" vertex="1" parent="1">
          <mxGeometry x="1340" y="46" width="120" height="60" as="geometry" />
        </mxCell>
        <mxCell id="gP4_GxT2YqUNMGMv6Jxc-67" value="" style="edgeStyle=orthogonalEdgeStyle;rounded=0;orthogonalLoop=1;jettySize=auto;html=1;" edge="1" parent="1" target="gP4_GxT2YqUNMGMv6Jxc-66">
          <mxGeometry relative="1" as="geometry">
            <mxPoint x="1399.9999999999995" y="229.99999999999955" as="sourcePoint" />
          </mxGeometry>
        </mxCell>
        <mxCell id="gP4_GxT2YqUNMGMv6Jxc-73" value="" style="edgeStyle=orthogonalEdgeStyle;rounded=0;orthogonalLoop=1;jettySize=auto;html=1;" edge="1" parent="1" source="gP4_GxT2YqUNMGMv6Jxc-66">
          <mxGeometry relative="1" as="geometry">
            <mxPoint x="1559.9999999999995" y="329.99999999999955" as="targetPoint" />
          </mxGeometry>
        </mxCell>
        <mxCell id="gP4_GxT2YqUNMGMv6Jxc-79" value="" style="edgeStyle=orthogonalEdgeStyle;rounded=0;orthogonalLoop=1;jettySize=auto;html=1;" edge="1" parent="1" source="gP4_GxT2YqUNMGMv6Jxc-66" target="gP4_GxT2YqUNMGMv6Jxc-78">
          <mxGeometry relative="1" as="geometry" />
        </mxCell>
        <mxCell id="gP4_GxT2YqUNMGMv6Jxc-66" value="TemplateSettings" style="whiteSpace=wrap;html=1;" vertex="1" parent="1">
          <mxGeometry x="1340" y="300" width="120" height="60" as="geometry" />
        </mxCell>
        <mxCell id="gP4_GxT2YqUNMGMv6Jxc-76" value="click thumbnail" style="ellipse;whiteSpace=wrap;html=1;" vertex="1" parent="1">
          <mxGeometry x="1340" y="176" width="120" height="80" as="geometry" />
        </mxCell>
        <mxCell id="gP4_GxT2YqUNMGMv6Jxc-81" value="" style="edgeStyle=orthogonalEdgeStyle;rounded=0;orthogonalLoop=1;jettySize=auto;html=1;" edge="1" parent="1" source="gP4_GxT2YqUNMGMv6Jxc-78" target="gP4_GxT2YqUNMGMv6Jxc-80">
          <mxGeometry relative="1" as="geometry" />
        </mxCell>
        <mxCell id="gP4_GxT2YqUNMGMv6Jxc-78" value="click &quot;Export&quot; button" style="ellipse;whiteSpace=wrap;html=1;" vertex="1" parent="1">
          <mxGeometry x="1130" y="290" width="110" height="80" as="geometry" />
        </mxCell>
        <mxCell id="gP4_GxT2YqUNMGMv6Jxc-80" value="export static html" style="ellipse;whiteSpace=wrap;html=1;" vertex="1" parent="1">
          <mxGeometry x="1130" y="450" width="110" height="80" as="geometry" />
        </mxCell>
        <mxCell id="gP4_GxT2YqUNMGMv6Jxc-84" value="" style="edgeStyle=orthogonalEdgeStyle;rounded=0;orthogonalLoop=1;jettySize=auto;html=1;" edge="1" parent="1" source="gP4_GxT2YqUNMGMv6Jxc-82" target="gP4_GxT2YqUNMGMv6Jxc-83">
          <mxGeometry relative="1" as="geometry" />
        </mxCell>
        <mxCell id="gP4_GxT2YqUNMGMv6Jxc-82" value="select component" style="ellipse;whiteSpace=wrap;html=1;" vertex="1" parent="1">
          <mxGeometry x="1560" y="290" width="120" height="80" as="geometry" />
        </mxCell>
        <mxCell id="gP4_GxT2YqUNMGMv6Jxc-83" value="display component settings" style="ellipse;whiteSpace=wrap;html=1;" vertex="1" parent="1">
          <mxGeometry x="1550" y="440" width="140" height="80" as="geometry" />
        </mxCell>
      </root>
    </mxGraphModel>
  </diagram>
</mxfile>
